<svg viewBox="0 0 80 80" fill="none" xmlns="http://www.w3.org/2000/svg">
  <rect x="2" y="2" width="76" height="76" rx="12" fill="#2a0a0a" stroke="#c9a227" stroke-width="2"/>
  <path d="M40 18c-4 0-7 1-8 2l2 35c0 3 3 6 6 6s6-3 6-6l2-35c-1-1-4-2-8-2z" fill="#7b1a1a" stroke="#c9a227" stroke-width="1"/>
  <ellipse cx="40" cy="22" rx="6" ry="2" fill="#c9a227" opacity="0.8"/>
  <path d="M33 18c-1-2-2-4-2-6 0-3 4-5 9-5s9 2 9 5c0 2-1 4-2 6" stroke="#c9a227" stroke-width="1.5" fill="none"/>
  <text x="40" y="72" font-family="Georgia" font-size="9" fill="#c9a227" text-anchor="middle" font-style="italic">Adega</text>
</svg>
